<svg id="visual" viewBox="0 0 900 600" width="900" height="600" xmlns="http://www.w3.org/2000/svg" xmlns:xlink="http://www.w3.org/1999/xlink" version="1.1"><rect x="0" y="0" width="900" height="600" fill="#81b29a"></rect><path d="M0 584L11.5 580.2C23 576.3 46 568.7 69 564.8C92 561 115 561 138.2 566.7C161.3 572.3 184.7 583.7 207.8 583.5C231 583.3 254 571.7 277 570.2C300 568.7 323 577.3 346 581.8C369 586.3 392 586.7 415.2 586.7C438.3 586.7 461.7 586.3 484.8 585C508 583.7 531 581.3 554 574.2C577 567 600 555 623 557C646 559 669 575 692.2 582C715.3 589 738.7 587 761.8 580.5C785 574 808 563 831 562C854 561 877 570 888.5 574.5L900 579L900 601L888.5 601C877 601 854 601 831 601C808 601 785 601 761.8 601C738.7 601 715.3 601 692.2 601C669 601 646 601 623 601C600 601 577 601 554 601C531 601 508 601 484.8 601C461.7 601 438.3 601 415.2 601C392 601 369 601 346 601C323 601 300 601 277 601C254 601 231 601 207.8 601C184.7 601 161.3 601 138.2 601C115 601 92 601 69 601C46 601 23 601 11.5 601L0 601Z" fill="#3d405b" stroke-linecap="round" stroke-linejoin="miter"></path></svg>