<?xml version="1.0" standalone="no"?><svg xmlns="http://www.w3.org/2000/svg" viewBox="0 0 1440 320"><path fill="#81B29A" fill-opacity="1" d="M0,128L40,133.3C80,139,160,149,240,170.7C320,192,400,224,480,208C560,192,640,128,720,133.3C800,139,880,213,960,234.7C1040,256,1120,224,1200,202.7C1280,181,1360,171,1400,165.3L1440,160L1440,320L1400,320C1360,320,1280,320,1200,320C1120,320,1040,320,960,320C880,320,800,320,720,320C640,320,560,320,480,320C400,320,320,320,240,320C160,320,80,320,40,320L0,320Z"></path></svg>